<?xml version="1.0" encoding="UTF-8" standalone="no"?>
<!-- Created with Inkscape (http://www.inkscape.org/) -->

<svg
   width="3840"
   height="2160"
   viewBox="0 0 3840 2160"
   version="1.1"
   id="svg1"
   inkscape:version="1.3 (0e150ed6c4, 2023-07-21)"
   sodipodi:docname="wallpaper.svg"
   xml:space="preserve"
   inkscape:export-filename="wallpaper.png"
   inkscape:export-xdpi="96"
   inkscape:export-ydpi="96"
   xmlns:inkscape="http://www.inkscape.org/namespaces/inkscape"
   xmlns:sodipodi="http://sodipodi.sourceforge.net/DTD/sodipodi-0.dtd"
   xmlns:xlink="http://www.w3.org/1999/xlink"
   xmlns="http://www.w3.org/2000/svg"
   xmlns:svg="http://www.w3.org/2000/svg"><sodipodi:namedview
     id="namedview1"
     pagecolor="#232638"
     bordercolor="#000000"
     borderopacity="0.25"
     inkscape:showpageshadow="2"
     inkscape:pageopacity="0.0"
     inkscape:pagecheckerboard="0"
     inkscape:deskcolor="#d1d1d1"
     inkscape:document-units="px"
     inkscape:zoom="0.12291667"
     inkscape:cx="2042.0339"
     inkscape:cy="1102.3729"
     inkscape:window-width="726"
     inkscape:window-height="677"
     inkscape:window-x="537"
     inkscape:window-y="36"
     inkscape:window-maximized="0"
     inkscape:current-layer="layer1"
     inkscape:export-bgcolor="#232638ff" /><defs
     id="defs1"><rect
       x="1708.4746"
       y="162.71186"
       width="1749.1525"
       height="545.08475"
       id="rect1" /><linearGradient
       id="linearGradient37"
       inkscape:collect="always"><stop
         style="stop-color:#b9bff8;stop-opacity:1;"
         offset="0"
         id="stop38" /><stop
         style="stop-color:#363a4f;stop-opacity:1;"
         offset="1"
         id="stop37" /></linearGradient><inkscape:path-effect
       effect="fillet_chamfer"
       id="path-effect32"
       is_visible="true"
       lpeversion="1"
       nodesatellites_param="F,0,0,1,0,64,0,1 @ F,0,0,1,0,64,0,1 @ F,0,0,1,0,64,0,1 @ F,0,0,1,0,64,0,1 @ F,0,0,1,0,64,0,1 @ F,0,0,1,0,64,0,1"
       radius="0"
       unit="px"
       method="auto"
       mode="F"
       chamfer_steps="1"
       flexible="false"
       use_knot_distance="true"
       apply_no_radius="true"
       apply_with_radius="true"
       only_selected="false"
       hide_knots="false" /><inkscape:path-effect
       effect="perspective-envelope"
       up_left_point="747.34781,-784.39557"
       up_right_point="1585.1671,-1268.1112"
       down_left_point="747.34781,183.03578"
       down_right_point="1585.1671,-300.67988"
       id="path-effect18"
       is_visible="true"
       lpeversion="1"
       deform_type="perspective"
       horizontal_mirror="false"
       vertical_mirror="false"
       overflow_perspective="false" /><inkscape:path-effect
       effect="perspective-envelope"
       up_left_point="794.05527,-1307.5298"
       up_right_point="1631.8745,-823.81416"
       down_left_point="794.05527,-340.09847"
       down_right_point="1631.8745,143.61719"
       id="path-effect17"
       is_visible="true"
       lpeversion="1"
       deform_type="perspective"
       horizontal_mirror="false"
       vertical_mirror="false"
       overflow_perspective="false" /><inkscape:path-effect
       effect="perspective-envelope"
       up_left_point="710.51741,-518.61526"
       up_right_point="1194.227,-1356.4345"
       down_left_point="1194.227,319.20398"
       down_right_point="1677.9427,-518.61526"
       id="path-effect16"
       is_visible="true"
       lpeversion="1"
       deform_type="perspective"
       horizontal_mirror="false"
       vertical_mirror="false"
       overflow_perspective="false" /><linearGradient
       inkscape:collect="always"
       xlink:href="#linearGradient37"
       id="linearGradient38"
       x1="80.502129"
       y1="54.979866"
       x2="431.49786"
       y2="448"
       gradientUnits="userSpaceOnUse" /></defs><g
     inkscape:label="Layer 1"
     inkscape:groupmode="layer"
     id="layer1"><g
       id="g1"
       transform="translate(-483.76569,-2.0339)"><g
         inkscape:label="Layer 1"
         id="layer1-7"
         transform="translate(1664,826.0339)"><path
           id="path1"
           style="fill:url(#linearGradient38);fill-opacity:1;stroke-width:0.651911"
           d="M 221.58789,73.220602 114.91422,134.80796 a 68.823603,68.823603 0 0 0 -34.412095,59.60316 v 123.17659 a 68.824038,68.824038 0 0 0 34.411995,59.60335 l 106.67389,61.58827 a 68.823932,68.823932 0 0 0 68.82398,0 l 106.67389,-61.58827 a 68.824038,68.824038 0 0 0 34.41199,-59.60335 V 194.41112 a 68.823603,68.823603 0 0 0 -34.4121,-59.60316 L 290.4121,73.220602 a 68.824801,68.824801 0 0 0 -68.82421,0 z" /><path
           style="fill:#24273a;stroke-width:0.179546"
           d="m 404.20436,182.89709 c -2.86893,-0.13877 -6.15992,0.74253 -9.66468,2.76601 l -109.93852,63.47285 c -11.21527,6.47514 -20.2437,22.1142 -20.2437,35.06449 v 126.94569 c 0,12.95029 9.02843,18.16372 20.2437,11.68857 l 109.93852,-63.47285 c 11.21526,-6.47514 20.24368,-22.1142 20.24368,-35.06449 V 197.35167 c 10e-6,-8.90332 -4.26736,-14.1493 -10.579,-14.45458 z"
           id="rect7" /><path
           style="fill:#24273a;stroke-width:0.179546"
           d="m 107.79564,182.89709 c -6.31164,0.30528 -10.579009,5.55124 -10.579009,14.45458 v 126.94569 c 0,12.95029 9.028419,28.58935 20.243689,35.06449 l 109.93852,63.47285 c 11.21526,6.47514 20.24369,1.26172 20.24369,-11.68857 V 284.20044 c 0,-12.95029 -9.02843,-28.58935 -20.24369,-35.06449 L 117.46032,185.6631 c -3.50477,-2.02348 -6.79575,-2.90478 -9.66468,-2.76601 z"
           id="rect13" /><path
           style="fill:#24273a;stroke-width:0.179546"
           d="m 256,79.483749 c -7.31823,0 -14.63609,1.61908 -20.24369,4.856595 L 125.81779,147.81319 c -11.21529,6.47509 -11.21521,16.90082 0,23.37592 l 109.9373,63.47285 c 11.21533,6.47518 29.27328,6.47518 40.4886,0 l 109.93852,-63.47285 c 11.21543,-6.4751 11.21531,-16.90083 0,-23.37592 L 276.24369,84.340344 C 270.63609,81.102829 263.31822,79.483749 256,79.483749 Z"
           id="rect15" /><path
           style="fill:#a6da95;stroke-width:0.179546"
           d="m 314.96791,271.70183 20.2437,35.06328 -20.2437,58.44042 -20.24491,11.68736 20.24491,-58.43921 -20.24491,-35.06449 z"
           id="path37" /><path
           style="fill:#f4dbd6;stroke-width:0.179546"
           d="m 365.57836,242.48102 v 93.50491 l -10.12184,5.84368 v -93.5037 z"
           id="path36" /><path
           style="fill:#f4dbd6;stroke-width:0.179546"
           d="m 188.31568,266.66819 10.12184,5.84368 v 93.50491 l -10.12184,-5.84489 z"
           id="path35" /><path
           style="fill:#ed8796;stroke-width:0.179546"
           d="m 127.58217,231.60491 20.24491,11.68736 20.24369,58.44042 -20.24369,35.06328 -20.24491,-11.68736 20.24491,-35.06449 z"
           id="path34" /><path
           style="fill:#f4dbd6;stroke-width:0.179546"
           d="m 312.37409,145.29576 10.12185,5.84489 -80.97599,46.75185 -10.12306,-5.84489 z"
           id="path33" /><path
           style="fill:#a6da95;stroke-width:0.179546"
           d="m 251.64179,110.23248 20.2437,11.68857 -20.2437,35.06328 -60.73229,11.68736 -20.24491,-11.68736 60.73351,-11.68735 z"
           id="path32" /></g><text
         xml:space="preserve"
         id="text1"
         style="font-style:normal;font-variant:normal;font-weight:normal;font-stretch:normal;font-size:96px;font-family:'FantasqueSansM Nerd Font';-inkscape-font-specification:'FantasqueSansM Nerd Font';white-space:pre;shape-inside:url(#rect1);display:inline;fill:#cad3f5"
         transform="translate(510.61714,855.36875)"><tspan
           x="1708.4746"
           y="250.68859"
           id="tspan3"><tspan
             style="font-weight:bold;-inkscape-font-specification:'FantasqueSansM Nerd Font Bold';fill:#a6da95"
             id="tspan2">sakkke@catppuccin</tspan></tspan></text></g></g></svg>
